<svg width="41" height="36" viewBox="0 0 41 36" fill="none" xmlns="http://www.w3.org/2000/svg">
<path d="M11.1802 0.842752C11.0909 0.753167 10.9849 0.682087 10.8681 0.633586C10.7513 0.585086 10.626 0.56012 10.4996 0.56012C10.3731 0.56012 10.2479 0.585086 10.1311 0.633586C10.0142 0.682087 9.90817 0.753167 9.81889 0.842752L4.71951 5.9125L2.90174 4.14117C2.81246 4.05159 2.70638 3.9805 2.58958 3.932C2.47278 3.8835 2.34755 3.85854 2.22107 3.85854C2.0946 3.85854 1.96937 3.8835 1.85257 3.932C1.73577 3.9805 1.62968 4.05159 1.54041 4.14117L0.283182 5.4C0.193597 5.48927 0.122516 5.59535 0.0740159 5.71216C0.0255154 5.82896 0.000549316 5.95419 0.000549316 6.08066C0.000549316 6.20714 0.0255154 6.33236 0.0740159 6.44917C0.122516 6.56597 0.193597 6.67205 0.283182 6.76133L4.0941 10.557C4.28432 10.7378 4.53674 10.8387 4.79919 10.8387C5.06164 10.8387 5.31406 10.7378 5.50428 10.557L6.7527 9.30621L12.5343 3.52537C12.7145 3.34509 12.8163 3.10104 12.8176 2.84619C12.819 2.59133 12.7198 2.34622 12.5416 2.16404L11.1802 0.842752ZM11.1802 13.5904C11.0909 13.5008 10.9849 13.4297 10.8681 13.3812C10.7513 13.3327 10.626 13.3078 10.4996 13.3078C10.3731 13.3078 10.2479 13.3327 10.1311 13.3812C10.0142 13.4297 9.90817 13.5008 9.81889 13.5904L4.71951 18.693L2.90174 16.9232C2.81246 16.8337 2.70638 16.7626 2.58958 16.7141C2.47278 16.6656 2.34755 16.6406 2.22107 16.6406C2.0946 16.6406 1.96937 16.6656 1.85257 16.7141C1.73577 16.7626 1.62968 16.8337 1.54041 16.9232L0.283182 18.1797C0.193597 18.2689 0.122516 18.375 0.0740159 18.4918C0.0255154 18.6086 0.000549316 18.7339 0.000549316 18.8603C0.000549316 18.9868 0.0255154 19.112 0.0740159 19.2288C0.122516 19.3456 0.193597 19.4517 0.283182 19.541L4.08449 23.3447C4.27458 23.5255 4.52687 23.6263 4.78918 23.6263C5.0515 23.6263 5.30378 23.5255 5.49387 23.3447L6.7511 22.0883L12.5327 16.305C12.7122 16.126 12.8136 15.8833 12.815 15.6299C12.8163 15.3764 12.7175 15.1326 12.54 14.9517L11.1802 13.5904ZM5.12551 27.4687C3.00424 27.4687 1.23451 29.1904 1.23451 31.3125C1.23451 33.4345 3.00584 35.1562 5.12551 35.1562C6.14494 35.1562 7.12261 34.7513 7.84345 34.0304C8.5643 33.3096 8.96926 32.3319 8.96926 31.3125C8.96926 30.2931 8.5643 29.3154 7.84345 28.5945C7.12261 27.8737 6.14494 27.4687 5.12551 27.4687ZM39.7193 28.75H16.6568C16.317 28.75 15.9911 28.885 15.7508 29.1252C15.5105 29.3655 15.3755 29.6914 15.3755 30.0312V32.5937C15.3755 32.9335 15.5105 33.2594 15.7508 33.4997C15.9911 33.74 16.317 33.875 16.6568 33.875H39.7193C40.0591 33.875 40.385 33.74 40.6253 33.4997C40.8656 33.2594 41.0005 32.9335 41.0005 32.5937V30.0312C41.0005 29.6914 40.8656 29.3655 40.6253 29.1252C40.385 28.885 40.0591 28.75 39.7193 28.75ZM39.7193 3.12498H16.6568C16.317 3.12498 15.9911 3.25997 15.7508 3.50025C15.5105 3.74053 15.3755 4.06642 15.3755 4.40623V6.96873C15.3755 7.30854 15.5105 7.63443 15.7508 7.87471C15.9911 8.11499 16.317 8.24998 16.6568 8.24998H39.7193C40.0591 8.24998 40.385 8.11499 40.6253 7.87471C40.8656 7.63443 41.0005 7.30854 41.0005 6.96873V4.40623C41.0005 4.06642 40.8656 3.74053 40.6253 3.50025C40.385 3.25997 40.0591 3.12498 39.7193 3.12498ZM39.7193 15.9375H16.6568C16.317 15.9375 15.9911 16.0725 15.7508 16.3127C15.5105 16.553 15.3755 16.8789 15.3755 17.2187V19.7812C15.3755 20.121 15.5105 20.4469 15.7508 20.6872C15.9911 20.9275 16.317 21.0625 16.6568 21.0625H39.7193C40.0591 21.0625 40.385 20.9275 40.6253 20.6872C40.8656 20.4469 41.0005 20.121 41.0005 19.7812V17.2187C41.0005 16.8789 40.8656 16.553 40.6253 16.3127C40.385 16.0725 40.0591 15.9375 39.7193 15.9375Z" fill="white"/>
</svg>
